<?xml version="1.0" encoding="UTF-8" standalone="no"?>
<svg
   xmlns:dc="http://purl.org/dc/elements/1.1/"
   xmlns:cc="http://creativecommons.org/ns#"
   xmlns:rdf="http://www.w3.org/1999/02/22-rdf-syntax-ns#"
   xmlns:svg="http://www.w3.org/2000/svg"
   xmlns="http://www.w3.org/2000/svg"
   xmlns:sodipodi="http://sodipodi.sourceforge.net/DTD/sodipodi-0.dtd"
   xmlns:inkscape="http://www.inkscape.org/namespaces/inkscape"
   xml:space="preserve"
   enable-background="new 0 0 792 612"
   viewBox="0 0 703.01202 280.40634"
   y="0px"
   x="0px"
   id="Layer_1"
   version="1.1"
   inkscape:version="0.91 r13725"
   sodipodi:docname="mcf_logo_stacked.svg"><sodipodi:namedview
     pagecolor="#ffffff"
     bordercolor="#666666"
     borderopacity="1"
     objecttolerance="10"
     gridtolerance="10"
     guidetolerance="10"
     inkscape:pageopacity="0"
     inkscape:pageshadow="2"
     inkscape:window-width="1600"
     inkscape:window-height="851"
     id="namedview31"
     showgrid="false"
     inkscape:zoom="0.43100259"
     inkscape:cx="1314.3773"
     inkscape:cy="84.87204"
     inkscape:window-x="0"
     inkscape:window-y="25"
     inkscape:window-maximized="1"
     inkscape:current-layer="Layer_1" /><metadata
     id="metadata59"><rdf:RDF><cc:Work
         rdf:about=""><dc:format>image/svg+xml</dc:format><dc:type
           rdf:resource="http://purl.org/dc/dcmitype/StillImage" /><dc:title /></cc:Work></rdf:RDF></metadata><defs
     id="defs57" /><rect
     style="fill:#fbae55"
     id="rect3"
     height="126.607"
     width="29.167"
     y="151.95601"
     x="519.30798" /><polygon
     transform="translate(-67.716,-99.976)"
     style="fill:#a2cd3a"
     id="polygon5"
     points="540.548,316.037 509.137,315.717 508.816,280.779 479.969,279.818 480.289,349.691 541.51,350.654 " /><rect
     style="fill:#c0519e"
     id="rect7"
     height="126.606"
     width="29.809"
     y="152.595"
     x="306.48099" /><rect
     style="fill:#7160aa"
     id="rect9"
     height="31.410999"
     width="73.079002"
     y="247.15001"
     x="223.146" /><rect
     style="fill:#ee1e3f"
     id="rect11"
     height="30.129999"
     width="94.554001"
     y="150.67101"
     x="0.70199925" /><path
     id="path13"
     d="m 64.398,182.085 0,32.496 -31.092,-0.166 0,64.822 -33.252,0 0,-129.315 96.931,0 0,32.328 -32.587,-0.165 z m 30.093,-2.333 0,-27.329 -91.941,0 0,27.329 91.941,0 z" /><path
     id="path15"
     d="m 216.126,214.747 c 0,17.776 -6.263,32.969 -18.786,45.575 -12.529,12.611 -27.658,18.915 -45.392,18.915 -17.623,0 -32.67,-6.304 -45.14,-18.915 -12.47,-12.606 -18.704,-27.799 -18.704,-45.575 0,-17.885 6.234,-33.133 18.704,-45.743 12.47,-12.607 27.518,-18.915 45.14,-18.915 17.734,0 32.863,6.308 45.392,18.915 12.524,12.61 18.786,27.857 18.786,45.743 z m -35.58,0 c 0,-7.887 -2.855,-14.691 -8.562,-20.414 -5.71,-5.721 -12.553,-8.581 -20.533,-8.581 -7.981,0 -14.828,2.86 -20.534,8.581 -5.709,5.723 -8.562,12.526 -8.562,20.414 0,8.112 2.853,15.026 8.562,20.747 5.706,5.724 12.553,8.583 20.534,8.583 7.979,0 14.823,-2.859 20.533,-8.583 5.707,-5.721 8.562,-12.635 8.562,-20.747 z" /><path
     id="path17"
     d="m 297.595,279.737 -75.483,0 0,-129.649 36.911,0 0,95.82 38.572,0 0,33.829 z m -2.494,-2.498 0,-28.83 -70.496,0 0,28.83 70.496,0 z" /><path
     id="path19"
     d="m 305.463,280.238 0,-128.816 32.088,0 c 17.399,0 32.28,6.278 44.642,18.832 12.359,12.554 18.538,27.662 18.538,45.327 0,17.662 -6.209,32.911 -18.621,45.743 -12.416,12.832 -27.267,19.189 -44.559,19.081 l -32.088,-0.167 z m 29.593,-2.501 0,-123.815 -27.102,0 0,123.814 27.102,0 z m 2.994,-33.328 c 7.979,0 14.822,-2.834 20.532,-8.498 5.708,-5.666 8.564,-12.44 8.564,-20.33 0,-7.888 -2.856,-14.665 -8.564,-20.331 -5.71,-5.666 -12.553,-8.5 -20.532,-8.5 l 0,57.659 z" /><path
     id="path21"
     d="m 507.249,279.237 -96.932,0 0,-129.315 96.932,0 0,32.328 -64.177,0 -0.167,32.33 31.757,0 0,32.329 32.587,0 0,32.328 z m -35.08,-32.327 0,-29.829 -31.757,0 0.331,-34.83 -27.93,0 0,64.659 59.356,0 z" /><path
     id="path23"
     d="m 549.866,279.571 -31.424,0 0,-128.481 31.922,0.166 c 13.302,0.111 24.606,4.833 33.919,14.165 9.312,9.333 13.966,20.609 13.966,33.828 0,8.777 -2.19,16.859 -6.567,24.247 -4.382,7.39 -10.228,13.193 -17.54,17.415 l 28.429,39.327 -33.644,0 -19.061,-27.331 0,26.664 z m -2.494,-2.5 0,-123.481 -26.437,0 0,123.481 26.437,0 z m 2.494,-61.824 c 4.5,0 8.368,-1.555 11.604,-4.666 3.237,-3.108 4.855,-6.887 4.855,-11.332 0,-4.442 -1.618,-8.22 -4.855,-11.332 -3.235,-3.107 -7.104,-4.666 -11.604,-4.666 l 0,31.996 z" /><path
     id="path25"
     d="m 701.985,182.251 c -8.979,0 -16.685,3.196 -23.11,9.583 -6.43,6.39 -9.643,14.027 -9.643,22.913 0,17.776 -6.21,32.969 -18.621,45.575 -12.417,12.611 -27.435,18.915 -45.059,18.915 l -0.165,-32.494 c 8.977,0 16.598,-3.11 22.861,-9.334 6.26,-6.218 9.392,-13.772 9.392,-22.662 0,-17.885 6.263,-33.133 18.789,-45.743 12.523,-12.607 27.654,-18.915 45.388,-18.915 l 0.168,32.162 z" /><polygon
     transform="translate(-67.716,-99.976)"
     style="fill:#ee1e3f"
     id="polygon27"
     points="723.52,227.218 722.938,179.584 768.392,102.203 735.175,102.786 693.994,179.39 693.605,227.996 " /><rect
     style="fill:#c0519e"
     id="rect29"
     height="98.378998"
     width="30.108"
     y="30.613005"
     x="518.08197" /><polygon
     transform="translate(-67.716,-99.976)"
     style="fill:#7160aa"
     id="polygon31"
     points="470.608,221.385 457.012,212.247 451.573,206.221 443.415,194.555 437.781,178.806 436.227,162.669 439.335,149.448 445.163,134.088 453.516,123.006 462.451,115.423 474.493,108.425 485.178,104.925 496.639,104.729 496.833,227.607 483.041,226.245 " /><polygon
     transform="translate(-67.716,-99.976)"
     style="fill:#75cccd"
     id="polygon33"
     points="371.156,104.729 340.852,104.536 340.076,229.358 370.378,229.162 " /><polygon
     transform="translate(-67.716,-99.976)"
     style="fill:#a2cd3a"
     id="polygon35"
     points="265.098,159.169 247.81,125.145 196.14,229.358 232.075,228.385 " /><polygon
     transform="translate(-67.716,-99.976)"
     style="fill:#be2a26"
     id="polygon37"
     points="185.649,160.141 156.513,194.75 156.706,228.773 186.038,229.358 " /><polygon
     transform="translate(-67.716,-99.976)"
     style="fill:#fbae55"
     id="polygon39"
     points="68.324,159.948 69.877,105.118 150.296,202.136 127.375,230.33 " /><path
     id="path41"
     d="m 120.089,130.449 -31.88,0 0,-32.406 L 60.294,132.268 31.881,98.043 31.715,130.449 0,130.449 0,0 60.293,73.079 120.088,0 l 0,130.449 z M 2.479,7.108 l 0,51.774 57.815,69.086 L 81.106,103.07 2.479,7.108 Z m 88.206,88.455 0,32.406 26.926,0 0,-65.142 -26.926,32.736 z" /><path
     id="path43"
     d="m 126.365,130.449 52.033,-105.485 -10.406,-20.83 38.488,0 62.108,126.479 -142.223,-0.164 z m 69.046,-71.59 -15.361,-31.745 -49.722,100.854 33.202,0 31.881,-69.109 z m 1.322,2.976 -17.18,37.366 35.846,0 -18.666,-37.366 z" /><path
     id="path45"
     d="m 272.055,130.78 0,-127.805 31.88,0 c 17.288,0 32.073,6.23 44.35,18.684 12.28,12.457 18.421,27.445 18.421,44.97 0,17.526 -6.169,32.654 -18.502,45.385 -12.335,12.731 -27.089,19.04 -44.269,18.931 l -31.88,-0.165 z m 29.404,-2.482 0,-122.842 -26.926,0 0,122.843 26.926,0 z m 2.973,-33.066 c 7.928,0 14.726,-2.811 20.398,-8.432 5.671,-5.622 8.507,-12.344 8.507,-20.172 0,-7.824 -2.836,-14.549 -8.507,-20.169 -5.673,-5.622 -12.47,-8.433 -20.398,-8.433 l 0,57.206 z" /><path
     id="path47"
     d="m 430.796,129.126 c -17.29,0 -32.074,-6.143 -44.353,-18.435 -12.28,-12.289 -18.418,-27.141 -18.418,-44.557 0,-17.526 6.112,-32.459 18.336,-44.806 C 398.585,8.984 413.394,2.811 430.796,2.811 l 0,126.315 z m -2.478,-2.48 0,-26.454 c -9.014,-0.551 -16.66,-4.134 -22.948,-10.746 -6.287,-6.615 -9.428,-14.385 -9.428,-23.312 0,-8.929 3.141,-16.699 9.428,-23.314 6.288,-6.612 13.935,-10.192 22.948,-10.746 l 0,-26.783 c -16.188,0.661 -29.873,6.86 -41.048,18.6 -11.18,11.738 -16.768,25.821 -16.768,42.244 0,16.313 5.616,30.312 16.849,41.994 11.234,11.684 24.887,17.855 40.967,18.517 z" /><path
     id="path49"
     d="m 477.211,130.78 -31.88,0 0,-127.805 31.88,0 0,127.805 z" /><path
     id="path51"
     d="m 581.769,33.562 -32.212,0 0,96.556 -32.375,0 0,-96.556 -31.715,0 0,-32.075 96.302,0 0,32.075 z m -34.688,94.076 0,-94.076 -27.42,0 0,94.076 27.42,0 z" /><path
     id="path53"
     d="m 657.091,80.517 0,48.113 -32.211,0 0,-47.616 -43.938,-79.361 33.696,0.165 25.771,48.609 26.428,-49.601 36.175,0 -45.921,79.691 z m 41.627,-77.211 -30.395,0 -40.966,77.542 0,45.302 27.256,0 -0.166,-45.798 44.271,-77.046 z" /></svg>
